<?xml version="1.0" standalone="no"?><!DOCTYPE svg PUBLIC "-//W3C//DTD SVG 1.1//EN" "http://www.w3.org/Graphics/SVG/1.1/DTD/svg11.dtd"><svg t="1512552308618" class="icon" style="" viewBox="0 0 1025 1024" version="1.1" xmlns="http://www.w3.org/2000/svg" p-id="4906" xmlns:xlink="http://www.w3.org/1999/xlink" width="200.1953125" height="200"><defs><style type="text/css"></style></defs><path d="M1007.154548 377.591699 837.551778 207.203659l-0.15644-0.155418c-11.299489-11.199286-26.27277-17.36692-42.16322-17.36692L513.248966 189.681322 513.248966 32.719542c0-18.07039-14.649153-32.719542-32.719542-32.719542-18.07039 0-32.719542 14.649153-32.719542 32.719542L447.809882 189.680299 60.112957 189.680299c-24.553972 0-46.246006 14.585758-55.333859 37.182692-9.171697 22.367897-4.066426 47.857443 13.012153 64.973854l128.66142 129.22072L17.081646 565.899822c-16.509054 17.093916-21.341322 42.20412-12.295391 64.332755 9.147157 22.582619 30.852483 37.168378 55.327724 37.168378l387.696925 0 0 323.879502c0 18.07039 14.649153 32.719542 32.719542 32.719542 18.07039 0 32.719542-14.649153 32.719542-32.719542L513.249989 667.399933l281.982128 0c15.889428 0 30.874978-6.197286 42.196962-17.448718l0.623716-0.619626 169.782728-187.939006C1030.329186 438.015491 1030.09197 400.610919 1007.154548 377.591699zM792.657498 601.960848 513.248966 601.960848l-65.439085 0L72.612844 601.960848 236.371086 418.620982 73.578071 255.119384l374.231811 0 65.439085 0 279.666198 0 164.123269 164.882976L792.657498 601.960848z" p-id="4907" fill="#1296db"></path></svg>