<?xml version="1.0" standalone="no"?><!DOCTYPE svg PUBLIC "-//W3C//DTD SVG 1.1//EN" "http://www.w3.org/Graphics/SVG/1.1/DTD/svg11.dtd"><svg t="1512552680648" class="icon" style="" viewBox="0 0 1024 1024" version="1.1" xmlns="http://www.w3.org/2000/svg" p-id="7205" xmlns:xlink="http://www.w3.org/1999/xlink" width="200" height="200"><defs><style type="text/css"></style></defs><path d="M684.288 682.688V546.112H615.36v-92.16c81.216-38.528 137.856-120.064 137.856-215.04C753.28 107.2 645.12 0 512 0 379.008 0 270.72 107.2 270.72 238.912c0 94.976 56.704 176.512 137.92 215.04v92.16H339.712v136.576H64v204.8h896v-204.8h-275.712zM339.712 238.912c0-94.08 77.248-170.624 172.288-170.624s172.288 76.544 172.288 170.624a171.328 171.328 0 0 1-137.856 167.232v139.968H477.568V406.144a171.328 171.328 0 0 1-137.856-167.232zM408.64 614.4h206.72v68.288h-206.72V614.4z m482.432 204.8H132.928v-68.288h758.144V819.2zM64 955.712h896V1024H64v-68.288z" fill="#E8541E" p-id="7206"></path></svg>