<?xml version="1.0" standalone="no"?><!DOCTYPE svg PUBLIC "-//W3C//DTD SVG 1.1//EN" "http://www.w3.org/Graphics/SVG/1.1/DTD/svg11.dtd"><svg t="1512619627141" class="icon" style="" viewBox="0 0 1024 1024" version="1.1" xmlns="http://www.w3.org/2000/svg" p-id="1851" xmlns:xlink="http://www.w3.org/1999/xlink" width="200" height="200"><defs><style type="text/css"></style></defs><path d="M841.678049 419.590244l0-87.414634 0 0c0 0 0 0 0 0 0-2.497561 0-4.995122 0-9.990244 0-2.497561 0-2.497561 0-4.995122 0-2.497561 0-7.492683 0-9.990244C829.190244 137.365854 686.829268 0 512 0 329.678049 0 182.321951 149.853659 182.321951 332.17561c0 0 0 0 0 0l0 0 0 87.414634C134.868293 432.078049 99.902439 474.536585 99.902439 526.985366l0 387.121951C99.902439 974.04878 149.853659 1024 209.795122 1024l604.409756 0c59.941463 0 109.892683-49.95122 109.892683-109.892683L924.097561 526.985366C924.097561 474.536585 889.131707 432.078049 841.678049 419.590244zM566.946341 746.770732c0 29.970732-24.97561 54.946341-54.946341 54.946341s-54.946341-24.97561-54.946341-54.946341l0-54.946341c0-29.970732 24.97561-54.946341 54.946341-54.946341s54.946341 24.97561 54.946341 54.946341L566.946341 746.770732zM731.785366 332.17561 731.785366 332.17561l0 82.419512L292.214634 414.595122l0-82.419512 0 0 0 0c0-122.380488 99.902439-222.282927 219.785366-222.282927S731.785366 209.795122 731.785366 332.17561L731.785366 332.17561z" p-id="1852" fill="#ffffff"></path></svg>