<?xml version="1.0" standalone="no"?><!DOCTYPE svg PUBLIC "-//W3C//DTD SVG 1.1//EN" "http://www.w3.org/Graphics/SVG/1.1/DTD/svg11.dtd"><svg t="1514969791452" class="icon" style="" viewBox="0 0 1024 1024" version="1.1" xmlns="http://www.w3.org/2000/svg" p-id="5284" xmlns:xlink="http://www.w3.org/1999/xlink" width="200" height="200"><defs><style type="text/css"></style></defs><path d="M984.8009375 646.865L864.5037500000001 526.5612500000001c-4.929375-4.936875-11.4946875-7.6565625-18.4921875-7.6565625-7.010625 0-13.5759375 2.71875-18.506249999999998 7.6565625L527.4846875000001 826.5734375c-4.944375 4.9818750000000005-7.664062500000001 11.5678125-7.664062500000001 18.55875v118.858125c0 14.43 11.7403125 26.170312499999998 26.185312500000002 26.170312499999998H665.825c6.9834375 0 13.5628125-2.7028125 18.5353125-7.634062500000001l179.72343750000002-179.728125c4.9434375-4.9321875 7.6621875-11.5096875 7.6621875-18.508125 0-6.9984375-2.71875-13.576875-7.6621875-18.506249999999998-4.9321875-4.93875-11.495625-7.6565625-18.4921875-7.6565625-7.0134375 0-13.5778125 2.7178125-18.508125 7.6565625l-171.075 172.035-83.8321875 0.8240625-0.7228125-81.9459375 273.99375-275.1778125 84.481875 83.3184375-22.947187500000002 24.0309375-42.001875-42.003750000000004c-4.9312499999999995-4.936875-11.4946875-7.6546875-18.4921875-7.6546875-7.0134375 0-13.576875 2.7178125-18.508125 7.6546875-4.944375 4.9312499999999995-7.6621875 11.5096875-7.6621875 18.500625000000003 0 6.9984375 2.7178125 13.576875 7.6621875 18.508125l59.9025 59.9025c4.944375 4.944375 11.5096875 7.6621875 18.508125 7.6621875s13.561874999999999-2.7178125 18.506249999999998-7.6621875l59.9025-59.9025c4.944375-4.9312499999999995 7.663124999999999-11.510625000000001 7.663124999999999-18.508125 0.001875-6.9984375-2.716875-13.5703125-7.661250000000001-18.500625000000003z m-142.528125-271.70625l-0.035625-71.80125c-0.0459375-2.6596875-0.6215625-4.7990625-1.2046875-7.0453125-0.16874999999999998-0.9037499999999999-0.5287499999999999-2.7675-1.4034375000000001-4.713749999999999-0.89625-2.0700000000000003-2.015625-3.541875-2.8125-4.6153125-1.9546875-3.0890625-2.8903125000000003-4.2384375-3.189375-4.2534374999999995l-1.3565625000000001-1.4568750000000001c-1.53375-1.4259374999999999-2.9521875-2.23875-4.2459375-2.9296875-1.2121875-0.8184375-3.0524999999999998-2.060625-5.6353125-3.0815625-2.214375-0.8503125-4.2009375-1.149375-5.76375-1.3640625000000002-0.8428125-0.230625-2.805-0.7743749999999999-5.274375-0.7743749999999999H627.7118750000001c-17.07 0-30.952499999999997 13.897499999999999-30.952499999999997 30.984374999999996 0 17.0859375 13.8825 30.9834375 30.952499999999997 30.9834375h114.1153125L533.97125 566.0459375 350.4134375 396.0246875 176.3834375 589.3718749999999c-5.5190624999999995 6.148125-8.317499999999999 14.081249999999999-7.87875 22.344375 0.4284375 8.263125 4.0471875 15.8446875 10.164375 21.3328125a30.8746875 30.8746875 0 0 0 20.773125 8.018437500000001 30.864374999999995 30.864374999999995 0 0 0 22.9959375-10.2796875l131.94468750000001-146.625 183.5896875 170.01375000000002L780.3771875 384.81874999999997v52.92375l61.895625-62.58375z" p-id="5285"></path><path d="M94.3934375 882.0471875000001V134.12750000000005c0-20.420625 16.62-37.0321875 37.0471875-37.0321875h747.905625c20.4290625 0 37.0471875 16.6115625 37.0471875 37.0321875v260.6484375l61.921875 61.2421875V134.12843750000002c0-54.579375000000006-44.398125-98.9765625-98.968125-98.9765625H131.440625C76.86312499999997 35.15187500000002 32.46406250000001 79.54906249999999 32.46406250000001 134.12843750000002v747.9196875c0 54.5625 44.398125 98.9615625 98.9765625 98.968125h222.645v-61.93781249999999H131.440625c-20.427187500000002 0.0009375-37.0471875-16.610625-37.0471875-37.03125z" p-id="5286"></path></svg>