<?xml version="1.0" standalone="no"?><!DOCTYPE svg PUBLIC "-//W3C//DTD SVG 1.1//EN" "http://www.w3.org/Graphics/SVG/1.1/DTD/svg11.dtd"><svg t="1512552373668" class="icon" style="" viewBox="0 0 1024 1024" version="1.1" xmlns="http://www.w3.org/2000/svg" p-id="5635" xmlns:xlink="http://www.w3.org/1999/xlink" width="200" height="200"><defs><style type="text/css"></style></defs><path d="M826.496 381.824l-60.416 241.728L652.8 595.2l-90.048 90.048-182.464-182.464-62.208 248.768-124.16-31.104 64-256L371.2 492.8l90.048-90.048 182.464 182.464 58.624-234.496a160 160 0 1 1 124.16 31.04zM800 256a32 32 0 1 0 0-64 32 32 0 0 0 0 64z m-128 576a160 160 0 1 1 0-320 160 160 0 0 1 0 320z m0-128a32 32 0 1 0 0-64 32 32 0 0 0 0 64z m-448 256a160 160 0 1 1 0-320 160 160 0 0 1 0 320z m0-128a32 32 0 1 0 0-64 32 32 0 0 0 0 64z m128-448a32 32 0 1 0 0-64 32 32 0 0 0 0 64z m0 128a160 160 0 1 1 0-320 160 160 0 0 1 0 320z" p-id="5636" fill="#E8A010"></path></svg>