<?xml version="1.0" standalone="no"?><!DOCTYPE svg PUBLIC "-//W3C//DTD SVG 1.1//EN" "http://www.w3.org/Graphics/SVG/1.1/DTD/svg11.dtd"><svg t="1514906924295" class="icon" style="" viewBox="0 0 1024 1024" version="1.1" xmlns="http://www.w3.org/2000/svg" p-id="38086" xmlns:xlink="http://www.w3.org/1999/xlink" width="200" height="200"><defs><style type="text/css"></style></defs><path d="M562.851022 120.646543l0 154.547225q0 13.959104 9.472249 33.900682t35.3963 36.891918q22.932814 14.956183 39.883155 42.375852t17.94742 56.334956l0 40.880234 0 79.76631q0 45.865628-0.498539 97.21519t-0.498539 96.218111l0 73.783836 0 32.903603q0 9.970789-1.994158 20.938656t-8.47517 21.935735-18.944499 20.440117-33.402142 15.454722q-37.888997 10.967868-83.754625 10.469328t-92.728335-10.469328q-22.932814-4.985394-36.393379-13.959104t-20.938656-19.941577-9.472249-22.434275-1.994158-20.440117l0-415.781889q0.997079-44.868549 19.443038-69.296981t36.393379-36.393379q15.953262-10.967868 30.410906-30.410906t15.454722-35.3963l0-159.532619 104.693281 0zM587.777994 569.332035l-154.547225 0 0 161.526777 154.547225 0 0-161.526777zM510.005842 0q32.903603 0 42.874391 6.481013t9.970789 32.405063l0 54.839338-104.693281 0 0-52.84518q0-24.926972 9.970789-32.903603t41.877313-7.976631z" p-id="38087" fill="#EC3160"></path></svg>