<?xml version="1.0" standalone="no"?><!DOCTYPE svg PUBLIC "-//W3C//DTD SVG 1.1//EN" "http://www.w3.org/Graphics/SVG/1.1/DTD/svg11.dtd"><svg t="1515479328837" class="icon" style="" viewBox="0 0 1024 1024" version="1.1" xmlns="http://www.w3.org/2000/svg" p-id="10110" xmlns:xlink="http://www.w3.org/1999/xlink" width="200" height="200"><defs><style type="text/css"></style></defs><path d="M760.265387 282.118827 760.265387 212.5824l22.350507 0c12.99456 0 24.029867-10.74176 24.029867-23.76704L806.64576 26.258773c0-13.288107-11.031893-23.4496-24.029867-23.4496L238.097067 2.809173c-12.997973 0-23.476907 10.161493-23.476907 23.4496l0 162.553173c0 13.028693 10.47552 23.76704 23.476907 23.76704l22.60992 0 0 69.536427c-90.180267 4.512427-162.843307 80.278187-162.843307 170.48576l0 398.609067c0 93.5936 77.759147 170.775893 171.035307 170.775893l483.464533 0c93.27616 0 170.745173-76.629333 170.745173-170.775893l0-398.609067C923.108693 362.397013 850.18624 286.631253 760.265387 282.118827L760.265387 282.118827zM262.703787 50.28864 262.703787 50.28864l495.885653 0 0 114.786987L262.703787 165.075627 262.703787 50.28864 262.703787 50.28864zM680.250027 212.5824 680.250027 212.5824l0 69.249707L340.435627 281.832107 340.435627 212.5824 680.250027 212.5824 680.250027 212.5824zM843.093333 851.217067 843.093333 851.217067c0 50.05312-41.253547 91.047253-90.729813 91.047253L268.898987 942.26432c-50.025813 0-91.306667-40.994133-91.306667-91.047253l0-398.609067c0-49.476267 41.280853-90.75712 91.306667-90.75712l483.464533 0c49.476267 0 90.729813 41.280853 90.729813 90.75712L843.093333 851.217067 843.093333 851.217067zM687.602347 556.35968 687.602347 556.35968l0-0.580267-124.658347 0 102.888107-102.915413c9.352533-9.035093 9.352533-24.28928 0-33.645227-4.80256-4.222293-10.74176-7.058773-16.960853-7.058773l-176.39424 0c-9.611947 0-17.2544 5.096107-21.480107 12.73856L313.309867 643.703467c-7.35232 11.02848-3.67616 25.736533 7.35232 32.79872 4.225707 2.546347 8.482133 3.67616 12.42112 3.67616l0 0 137.97376 0-91.886933 176.421547c-6.22592 11.291307-1.706667 25.995947 9.90208 32.221867 9.321813 5.096107 20.93056 2.83648 27.706027-3.966293l288.078507-287.791787c8.772267-9.321813 8.772267-24.316587 0-33.928533C699.76064 558.619307 693.828267 556.35968 687.602347 556.35968L687.602347 556.35968zM493.376853 740.686507 493.376853 740.686507 530.432 669.149867c2.259627-3.67616 4.225707-7.908693 4.225707-12.70784 0-13.288107-11.02848-23.76704-24.316587-23.76704l-133.720747 0 108.561067-172.714667 106.01472 0-102.33856 102.628693-0.549547 0.549547c-4.805973 4.256427-7.348907 10.451627-7.348907 16.964267 0 13.288107 11.02848 23.739733 24.029867 23.739733l125.2352 0L493.376853 740.686507 493.376853 740.686507z" p-id="10111" fill="#009933"></path></svg>