<?xml version="1.0" standalone="no"?><!DOCTYPE svg PUBLIC "-//W3C//DTD SVG 1.1//EN" "http://www.w3.org/Graphics/SVG/1.1/DTD/svg11.dtd"><svg t="1512552587948" class="icon" style="" viewBox="0 0 1024 1024" version="1.1" xmlns="http://www.w3.org/2000/svg" p-id="6464" xmlns:xlink="http://www.w3.org/1999/xlink" width="200" height="200"><defs><style type="text/css"></style></defs><path d="M448 256l320 0 0 64-320 0 0-64Z" p-id="6465" fill="#0BA194"></path><path d="M512 384l256 0 0 64-256 0 0-64Z" p-id="6466" fill="#0BA194"></path><path d="M512 512l256 0 0 64-256 0 0-64Z" p-id="6467" fill="#0BA194"></path><path d="M512 640l256 0 0 64-256 0 0-64Z" p-id="6468" fill="#0BA194"></path><path d="M320 128 320 344 384 344 384 192 832 192 832 832 704 832 704 896 896 896 896 128Z" p-id="6469" fill="#0BA194"></path><path d="M585.088 795.968l-138.496-78.784c-3.84-2.176-8.192-7.232-9.792-11.264l-16.704-36.864c22.144-16 37.952-67.584 37.952-96.64L458.048 513.6c0-48.512-40.64-88.256-90.112-88.256-49.472 0-89.92 39.744-89.92 88.256l0 58.816c0 29.696 14.464 81.792 37.44 97.664L299.136 705.92c-1.536 4.032-5.952 9.088-9.792 11.264l-138.496 78.784c-3.84 2.176-7.488 7.424-8.256 11.648L128 896l480 0-14.656-88.384C592.64 803.392 588.864 798.08 585.088 795.968z" p-id="6470" fill="#0BA194"></path></svg>