<?xml version="1.0" standalone="no"?><!DOCTYPE svg PUBLIC "-//W3C//DTD SVG 1.1//EN" "http://www.w3.org/Graphics/SVG/1.1/DTD/svg11.dtd"><svg t="1514906971416" class="icon" style="" viewBox="0 0 1024 1024" version="1.1" xmlns="http://www.w3.org/2000/svg" p-id="39024" xmlns:xlink="http://www.w3.org/1999/xlink" width="200" height="200"><defs><style type="text/css"></style></defs><path d="M136.533333 732.478578a22.436978 22.436978 0 0 0 44.8512 0V329.557333a22.436978 22.436978 0 0 0-44.8512 0v402.921245zM158.958933 250.311111a79.325867 79.325867 0 0 1 79.314489 79.246222v402.921245a79.325867 79.325867 0 0 1-158.628978 0V329.557333C79.644444 285.787022 115.245511 250.311111 158.958933 250.311111z" p-id="39025" fill="#EC3160"></path><path d="M185.7536 758.215111h663.870578A49.129244 49.129244 0 0 0 898.844444 709.063111 49.186133 49.186133 0 0 0 849.624178 659.911111H185.7536A49.129244 49.129244 0 0 0 136.533333 709.063111a49.186133 49.186133 0 0 0 49.220267 49.152z m0-155.192889h663.870578C908.219733 603.022222 955.733333 650.490311 955.733333 709.063111a106.018133 106.018133 0 0 1-106.109155 106.040889H185.7536C127.158044 815.104 79.644444 767.658667 79.644444 709.063111A106.018133 106.018133 0 0 1 185.7536 603.022222zM436.565333 495.843556c0-56.923022-45.374578-103.310222-101.660444-103.310223-56.285867 0-101.660444 46.3872-101.660445 103.310223 0 56.900267 45.374578 103.287467 101.660445 103.287466 56.285867 0 101.660444-46.3872 101.660444-103.298844z m-146.432 0c0-25.782044 20.184178-46.421333 44.771556-46.421334 24.576 0 44.771556 20.639289 44.771555 46.421334 0 25.759289-20.195556 46.398578-44.771555 46.398577S290.133333 521.602844 290.133333 495.843556z" p-id="39026" fill="#EC3160"></path><path d="M689.299911 540.444444c31.323022 0 57.0368 26.282667 57.0368 58.891378a28.444444 28.444444 0 0 0 56.888889 0c0-63.738311-50.8928-115.780267-113.925689-115.780266H420.977778a28.444444 28.444444 0 1 0 0 56.888888h268.322133zM227.555556 907.411911a28.444444 28.444444 0 0 0 56.888888 0V796.444444a28.444444 28.444444 0 1 0-56.888888 0v110.967467zM705.422222 907.411911a28.444444 28.444444 0 0 0 56.888889 0V796.444444a28.444444 28.444444 0 1 0-56.888889 0v110.967467zM670.435556 278.755556a10.308267 10.308267 0 0 1-3.447467-0.978489 21.640533 21.640533 0 0 1-11.355022-11.764623 21.731556 21.731556 0 0 1-0.398223-16.531911 10.467556 10.467556 0 0 1 1.809067-3.242666l-59.027911 58.891377c-26.885689 26.8288-11.036444 64.648533 26.771911 64.648534h82.2272a28.444444 28.444444 0 1 0 0-56.888889h-82.2272c12.743111 0 22.539378 23.404089 13.4144 32.517689l59.016533-58.891378c26.942578-26.885689 11.081956-64.648533-26.783288-64.648533H591.644444a28.444444 28.444444 0 1 0 0 56.888889h78.791112zM852.48 130.844444a10.308267 10.308267 0 0 1-3.447467-0.978488 21.640533 21.640533 0 0 1-11.355022-11.764623 21.731556 21.731556 0 0 1-0.398222-16.531911 10.467556 10.467556 0 0 1 1.809067-3.242666l-59.027912 58.891377c-26.885689 26.8288-11.036444 64.648533 26.771912 64.648534h82.2272a28.444444 28.444444 0 1 0 0-56.888889h-82.2272c12.743111 0 22.539378 23.404089 13.4144 32.517689l59.016533-58.891378c26.942578-26.885689 11.081956-64.648533-26.783289-64.648533H773.688889a28.444444 28.444444 0 1 0 0 56.888888h78.791111z" p-id="39027" fill="#EC3160"></path></svg>