<?xml version="1.0" standalone="no"?><!DOCTYPE svg PUBLIC "-//W3C//DTD SVG 1.1//EN" "http://www.w3.org/Graphics/SVG/1.1/DTD/svg11.dtd"><svg t="1515479260653" class="icon" style="" viewBox="0 0 1024 1024" version="1.1" xmlns="http://www.w3.org/2000/svg" p-id="9881" xmlns:xlink="http://www.w3.org/1999/xlink" width="200" height="200"><defs><style type="text/css"></style></defs><path d="M763.146 106.868c-108.69 0-196.869 88.18-196.869 196.868 0 108.686 88.18 196.865 196.869 196.865 108.686 0 196.866-88.179 196.866-196.865 0-108.689-88.18-196.868-196.866-196.868zM645.025 254.354c0-21.737 17.636 0 39.374 0 21.738 0 39.373-21.737 39.373 0 0 21.738-17.635 39.373-39.373 39.373-21.738 0-39.374-17.635-39.374-39.373zM825.32 405.613c-8.203 7.136-20.588 6.399-27.807-1.804-2.296-2.625-6.807-6.97-12.468-11.319-8.449-6.399-16.323-10.008-21.9-10.008-5.578 0-13.535 3.61-21.903 10.008-5.742 4.348-10.253 8.777-12.468 11.319-7.136 8.203-19.604 9.023-27.807 1.804-8.203-7.137-9.024-19.605-1.805-27.807 3.856-4.43 10.172-10.582 18.292-16.734 14.685-11.157 29.778-18.046 45.772-18.046 15.913 0 31.089 6.89 45.772 18.046 8.12 6.152 14.356 12.305 18.293 16.734 7.053 8.202 6.233 20.67-1.971 27.807z m16.571-111.886c-21.737 0-39.373-17.635-39.373-39.373 0-21.737 17.636 0 39.373 0 21.739 0 39.373-21.737 39.373 0 0 21.738-17.636 39.373-39.373 39.373z m0 0M466.13 389.365l398.751 246.42-398.752-246.42z" fill="#EC3160" p-id="9882"></path><path d="M633.753 492.587c16.741 35.258 26.115 74.663 26.115 116.214 0 149.94-121.988 271.888-271.889 271.888-149.939 0-271.888-121.948-271.888-271.888 0-149.9 121.95-271.889 271.888-271.889 61.505 0 118.311 20.537 163.92 55.113 0 0-12.104-17.74-13.287-69.783-45.02-23.762-96.284-37.223-150.632-37.223-178.529 0-323.822 145.256-323.822 323.78 0 178.573 145.255 323.824 323.822 323.824 178.53 0 323.782-145.251 323.782-323.823 0-32.495-4.813-63.888-13.762-93.504 0 0.001-25.214-3.785-64.247-22.71zM388.743 797.71c-64.456 0-124.246-29.171-164-79.949-7.887-10.06-6.116-24.585 3.94-32.47 10.02-7.887 24.585-6.115 32.474 3.942 30.94 39.552 77.415 62.207 127.587 62.207 50.66 0 97.454-23.056 128.394-63.293 7.805-10.101 22.293-12.031 32.433-4.227 10.139 7.766 12.028 22.292 4.265 32.432-39.754 51.703-99.949 81.358-165.092 81.358zM284.656 611.135c-19.153 0-34.683-15.53-34.683-34.725v-46.229c0-19.194 15.53-34.684 34.683-34.684 19.15 0 34.684 15.49 34.684 34.684v46.229c0 19.194-15.535 34.725-34.684 34.725z m208.14 0c-19.15 0-34.683-15.53-34.683-34.725v-46.229c0-19.194 15.533-34.684 34.683-34.684 19.153 0 34.724 15.49 34.724 34.684v46.229c0 19.194-15.571 34.725-34.724 34.725z m0 0" fill="#EC3160" p-id="9883"></path></svg>