<?xml version="1.0" standalone="no"?><!DOCTYPE svg PUBLIC "-//W3C//DTD SVG 1.1//EN" "http://www.w3.org/Graphics/SVG/1.1/DTD/svg11.dtd"><svg t="1511974625457" class="icon" style="" viewBox="0 0 1024 1024" version="1.1" xmlns="http://www.w3.org/2000/svg" p-id="6105" xmlns:xlink="http://www.w3.org/1999/xlink" width="200" height="200"><defs><style type="text/css"></style></defs><path d="M385.15 385.662H256.257V235.285q0-49.103 19.436-91.557T329.4 69.051t80.815-50.637T512 0q49.103 0 94.625 18.414t80.816 50.637 56.263 74.677 20.971 91.557v150.377h-123.78V263.928q0-64.447-35.804-99.74t-97.183-35.293q-55.24 0-88.999 35.293t-33.758 99.74v121.734z m440.904 61.379q27.62 0 47.568 19.948t19.948 47.568V831.68q0 27.62-9.718 51.66t-26.597 41.943-39.896 28.132-50.638 10.23H250.118q-27.62 0-50.126-10.23t-38.362-27.11-24.551-39.384-8.695-48.08V514.557q0-27.62 19.436-47.568t47.057-19.948h631.177z" p-id="6106" fill="#1296db"></path></svg>