<?xml version="1.0" standalone="no"?><!DOCTYPE svg PUBLIC "-//W3C//DTD SVG 1.1//EN" "http://www.w3.org/Graphics/SVG/1.1/DTD/svg11.dtd"><svg t="1515479001536" class="icon" style="" viewBox="0 0 1167 1024" version="1.1" xmlns="http://www.w3.org/2000/svg" p-id="4353" xmlns:xlink="http://www.w3.org/1999/xlink" width="227.9296875" height="200"><defs><style type="text/css"></style></defs><path d="M267.949471 84.220996c-90.60162-59.238343-212.964294-76.618189-251.487576-43.755595l0 0 0 0L16.431297 40.465402l0 0c-32.862594 38.553881-15.45215 160.947154 43.724996 251.518174 82.309476 125.942677 156.693987 160.64117 207.242408 167.586988 50.364832 6.91522 81.330329-11.902746 114.101128 1.009744 15.666339 6.18086 61.013046 51.527567 69.917157 60.339883 27.783273 27.569084 25.763784 25.27421 53.057483 53.332868 20.072497 20.715062 39.716617 41.797302 59.177147 63.093731 82.584861 89.989653 151.767658 191.882053 221.011651 286.889831 57.341248 78.698874 123.831393 95.252564 168.688528 53.149278l0 0.030598c0 0 0 0 0.030598-0.030598l0 0-0.030598 0c42.133884-44.826536 25.580194-111.377877-53.11868-168.719126-95.007777-69.213395-196.961374-138.396193-286.951027-220.950455-21.235232-19.521727-42.409269-39.074052-63.032535-59.207745-28.058658-27.324298-25.855579-25.243612-53.332868-53.026885-8.842914-8.934709-54.189621-54.312015-60.370482-69.978353-12.912491-32.709602 5.905475-63.705698-0.979147-114.07053C428.62124 240.914984 393.922747 166.530472 267.949471 84.220996zM736.715705 484.599989c32.740201-12.881892 45.866879-11.963942 96.201112-18.848564 28.701223-3.916585 74.568101-21.204634 111.530869-59.054753 82.278877-84.298366 162.599463-190.413334 204.274372-241.971499 8.751119-10.831805 22.826346-28.731821 15.849929-33.780543-3.27402-2.325472-13.493858 2.509062-23.683098 11.963942l-216.268912 200.327189c-3.45761 3.121028-8.842914 2.998636-12.116934-0.305983l-0.795557-0.764958c-3.27402-3.304618-3.427011-8.720521-0.275385-12.116934l200.327189-216.268912c9.45488-10.219838 14.075226-21.571814 10.342232-25.335407-3.763593-3.702396-15.08497 0.948548-25.304809 10.403428l-216.268912 200.235394c-3.396413 3.182225-8.842914 3.059831-12.116934-0.214188l-0.673163-0.673163c-3.243421-3.304618-3.427011-8.720521-0.244787-12.147532l200.265992-216.238314c9.45488-10.250437 14.105825-21.571814 10.403428-25.27421-3.763593-3.763593-15.115569 0.887352-25.335407 10.342232l-216.268912 200.265992c-3.396413 3.182225-8.842914 3.059831-12.116934-0.244787L823.461936 253.980465c-3.27402-3.243421-3.396413-8.659324-0.275385-12.116934l200.29659-216.268912c9.45488-10.219838 14.320013-20.439677 11.963942-23.713696-5.018124-6.976417-22.918141 7.068211-33.749945 15.849929-51.619362 41.644311-157.703731 121.964896-241.971499 204.274372-37.850119 36.962769-55.138169 82.799049-59.085352 111.530869-6.91522 50.364832-5.936074 63.460911-18.817966 96.23171-6.18086 15.63574-51.558166 61.013046-60.40108 69.917157-27.507888 27.813871-25.243612 25.763784-53.332868 53.057483-20.653865 20.103095-41.797302 39.686018-63.063133 59.177147-89.989653 82.554262-191.882053 151.767658-286.889831 221.011651-78.668276 57.310649-95.221965 123.770197-53.241073 168.627331 44.887733 42.011491 111.347279 25.4578 168.65793-53.210475 69.213395-95.007777 138.396193-196.930776 220.981054-286.859232 19.491128-21.296429 39.10465-42.439867 59.207745-63.12433 27.354896-28.058658 25.243612-25.82498 53.057483-53.30227C675.67206 536.158154 721.049365 490.811447 736.715705 484.599989z" p-id="4354" fill="#009933"></path></svg>