<?xml version="1.0" standalone="no"?><!DOCTYPE svg PUBLIC "-//W3C//DTD SVG 1.1//EN" "http://www.w3.org/Graphics/SVG/1.1/DTD/svg11.dtd"><svg t="1514906654393" class="icon" style="" viewBox="0 0 1024 1024" version="1.1" xmlns="http://www.w3.org/2000/svg" p-id="35603" xmlns:xlink="http://www.w3.org/1999/xlink" width="200" height="200"><defs><style type="text/css"></style></defs><path d="M694.311721 564.553936l-17.486256-349.740476c0-28.973892-23.486924-52.460816-52.461839-52.460816s-52.461839 23.486924-52.461839 52.460816l0 594.548064c0 28.984125 23.486924 52.471049 52.461839 52.471049s52.461839-23.486924 52.461839-52.471049l-17.499559-227.321332L694.311721 564.553936z" p-id="35604" fill="#EC3160"></path><path d="M484.467435 162.352645c-9.658987 0-17.486256 7.827269-17.486256 17.486256l0 122.409934c0 9.658987-7.827269 17.486256-17.498536 17.486256-9.647731 0-17.475-7.827269-17.475-17.486256L432.007643 197.337437c0-9.671267-7.827269-17.498536-17.486256-17.498536-9.660011 0-17.48728 7.827269-17.48728 17.498536l0 104.910375c0 9.658987-7.827269 17.486256-17.498536 17.486256-9.647731 0-17.475-7.827269-17.475-17.486256L362.060571 179.838901c0-9.658987-7.827269-17.486256-17.486256-17.486256-9.660011 0-17.48728 7.827269-17.48728 17.486256l0 201.101157c0 23.656793 27.187199 42.898019 50.997488 43.63787l-16.023952 384.79383c0 28.973892 23.486924 52.461839 52.461839 52.461839 28.973892 0 52.460816-23.486924 52.460816-52.461839l-16.023952-384.714012 7.280824 0c24.146956 0 43.717687-19.570731 43.717687-43.716664L501.957785 179.838901C501.954715 170.179914 494.133585 162.352645 484.467435 162.352645" p-id="35605" fill="#EC3160"></path></svg>