<?xml version="1.0" standalone="no"?><!DOCTYPE svg PUBLIC "-//W3C//DTD SVG 1.1//EN" "http://www.w3.org/Graphics/SVG/1.1/DTD/svg11.dtd"><svg t="1512547843679" class="icon" style="" viewBox="0 0 1024 1024" version="1.1" xmlns="http://www.w3.org/2000/svg" p-id="3467" xmlns:xlink="http://www.w3.org/1999/xlink" width="200" height="200"><defs><style type="text/css"></style></defs><path d="M736.597333 74.1376 265.864533 74.1376c-28.740267 0-58.845867 27.272533-58.845867 53.316267l0 745.8816c0 26.043733 28.672 53.282133 58.845867 53.282133L736.597333 926.6176c31.505067 0 58.811733-25.941333 58.811733-53.282133L795.409067 127.453867C795.409067 100.1472 766.702933 74.1376 736.597333 74.1376zM532.0704 850.056533l-61.678933 0c-16.4864 0-29.866667-13.380267-29.866667-29.866667s13.346133-29.866667 29.866667-29.866667l61.678933 0c16.4864 0 29.832533 13.380267 29.832533 29.866667S548.5568 850.056533 532.0704 850.056533zM736.597333 713.5232 265.864533 713.5232 265.864533 180.701867 736.597333 180.701867 736.597333 713.5232z" p-id="3468" fill="#1296db"></path></svg>