<?xml version="1.0" standalone="no"?><!DOCTYPE svg PUBLIC "-//W3C//DTD SVG 1.1//EN" "http://www.w3.org/Graphics/SVG/1.1/DTD/svg11.dtd"><svg t="1515479065600" class="icon" style="" viewBox="0 0 1024 1024" version="1.1" xmlns="http://www.w3.org/2000/svg" p-id="5224" xmlns:xlink="http://www.w3.org/1999/xlink" width="200" height="200"><defs><style type="text/css"></style></defs><path d="M78.154499 583.930239l756.243747 0 0 140.04457-756.243747 0 0-140.04457Z" fill="#1AAD18" p-id="5225"></path><path d="M861.824899 583.930239l84.018555 0 0 140.04457-84.018555 0 0-140.04457Z" fill="#1AAD18" p-id="5226"></path><path d="M860.626607 315.354318c0 38.963407 39.219233 68.862367 40.889269 70.116941l12.289907-16.365736c-9.099239-6.832615-32.713053-29.80891-32.713053-53.751205 0-14.362102 13.237489-31.860638 26.038026-48.783053 13.974269-18.473747 27.173896-35.922141 27.173896-53.547567 0-36.493146-37.748742-49.260937-39.355333-49.785893l-6.363941 19.452028c0.252757 0.082888 25.25315 8.512884 25.25315 30.334889 0 10.755971-11.706623 26.232454-23.029506 41.200354C875.971084 273.839809 860.626607 294.123784 860.626607 315.354318z" fill="#1AAD18" p-id="5227"></path><path d="M868.224656 421.942915c-8.518001-11.407817-17.924231-19.230993-22.444175-22.99062-0.714268-0.594541-1.269923-1.047866-1.61887-1.367137-1.221828-1.119497-2.62171-2.241041-4.242627-3.540639-8.980535-7.198959-24.01188-19.247366-30.721699-48.249911-3.577478-15.465227 5.365194-31.43085 13.498432-42.09984 9.591449-12.58462 20.457938-21.098527 20.566408-21.183462l-6.272867-8.084119-6.262634-8.093329c-2.110057 1.632173-51.553143 40.48404-41.467437 84.073814 8.309246 35.920094 28.268834 51.918463 37.860283 59.606563 1.338485 1.072425 2.494821 1.99954 3.219321 2.663666 0.607844 0.557702 1.340531 1.166569 2.353604 2.009773 7.798617 6.486738 31.530111 26.225291 31.927153 53.54552 0.281409 19.322068-11.20418 39.379892-34.139541 59.617819l13.540388 15.346523c27.620058-24.37106 41.435715-49.693796 41.063231-75.262124C884.853381 452.089515 879.181195 436.616102 868.224656 421.942915z" fill="#1AAD18" p-id="5228"></path></svg>