<?xml version="1.0" standalone="no"?><!DOCTYPE svg PUBLIC "-//W3C//DTD SVG 1.1//EN" "http://www.w3.org/Graphics/SVG/1.1/DTD/svg11.dtd"><svg t="1514868368785" class="icon" style="" viewBox="0 0 1638 1024" version="1.1" xmlns="http://www.w3.org/2000/svg" p-id="34091" xmlns:xlink="http://www.w3.org/1999/xlink" width="319.921875" height="200"><defs><style type="text/css"></style></defs><path d="M353.72672 294.76096s147.4048 26.01728 331.21792-13.8688c0 0 83.2448-22.54464 152.60544 18.208 0 0 124.85888 50.2912 31.21408 178.62016 0 0-224.8512 336.71168-520.81536 444.22528 0 0-84.39808 63.584 18.49344 30.05952 102.89664-33.5296 206.94272-93.63712 400.00896-204.6208 0 0 350.29504-253.19296 293.06624-395.392 0 0-38.14528-154.33472-209.82784-154.33472 0 0-80.63872-0.86912-142.20032 14.73792 0 0-70.22848 13.00864-134.39616 28.61568 0 0-154.33728 17.33888-208.96 12.13824 0-0.00256-149.71392-6.6496-10.4064 41.61152m0 0zM1027.7312 550.8352s-76.30592 98.27456-139.88224 139.89632c0 0-20.80768 28.90624 21.96224 17.33888 0 0 216.18688-114.4576 393.0688 30.0608 0 0 67.06176 35.83872 23.1232-30.0608 0 0-77.46176-129.47968-179.19744-150.28992 0-0.00768-49.70752-19.65952-119.07456-6.94528m0 0zM1168.77568 157.76512c0 51.08096-41.41184 92.48896-92.4928 92.48896-51.06688 0-92.48384-41.40928-92.48384-92.48896C983.79904 106.69056 1025.216 65.28 1076.28288 65.28c51.08224 0 92.4928 41.41056 92.4928 92.48512m0 0z" fill="#EC3160" p-id="34092"></path></svg>