<?xml version="1.0" standalone="no"?><!DOCTYPE svg PUBLIC "-//W3C//DTD SVG 1.1//EN" "http://www.w3.org/Graphics/SVG/1.1/DTD/svg11.dtd"><svg t="1514977921880" class="icon" style="" viewBox="0 0 1024 1024" version="1.1" xmlns="http://www.w3.org/2000/svg" p-id="10449" xmlns:xlink="http://www.w3.org/1999/xlink" width="200" height="200"><defs><style type="text/css"></style></defs><path d="M267.916912 255.608585c-10.034541-9.581216-26.306132-9.581216-36.329417 0-10.042727 9.573029-10.042727 25.095561 0 34.675754l36.329417 34.672684c10.035564 9.577123 26.294876 9.577123 36.329417 0 10.035564-9.573029 10.035564-25.095561 0-34.672684L267.916912 255.608585 267.916912 255.608585 267.916912 255.608585M756.078994 255.608585l-36.33351 34.675754c-10.027377 9.577123-10.027377 25.099654 0 34.672684 10.024308 9.577123 26.294876 9.577123 36.33351 0l36.326347-34.672684c10.038634-9.580193 10.038634-25.098631 0-34.675754C782.373871 246.031463 766.113535 246.031463 756.078994 255.608585L756.078994 255.608585 756.078994 255.608585M203.685006 449.668373l-51.383274 0c-14.190187 0-25.696242 10.982122-25.696242 24.518417 0 13.545504 11.502985 24.520463 25.696242 24.520463l51.382251 0c14.190187 0 25.693172-10.974959 25.693172-24.520463C229.378178 460.650495 217.874169 449.668373 203.685006 449.668373L203.685006 449.668373 203.685006 449.668373M871.694175 449.668373l-51.382251 0c-14.190187 0-25.696242 10.982122-25.696242 24.518417 0 13.545504 11.507078 24.520463 25.696242 24.520463l51.382251 0c14.190187 0 25.700335-10.974959 25.700335-24.520463C897.394511 460.650495 885.884362 449.668373 871.694175 449.668373L871.694175 449.668373 871.694175 449.668373M486.303758 167.678954l0 49.04195c0 13.542434 11.502985 24.514323 25.693172 24.514323 14.186094 0 25.696242-10.971889 25.696242-24.514323l0-49.04195c0-13.542434-11.510148-24.517393-25.696242-24.517393C497.806743 143.16156 486.303758 154.136519 486.303758 167.678954L486.303758 167.678954 486.303758 167.678954M280.763498 510.967484c0 121.895211 103.520725 220.700541 231.233432 220.700541 127.711683 0 231.235478-98.80533 231.235478-220.700541 0-121.883955-103.523795-220.683145-231.235478-220.683145C384.284223 290.284339 280.763498 389.083529 280.763498 510.967484L280.763498 510.967484 280.763498 510.967484M460.610586 854.270341c0 13.531178 11.507078 24.520463 25.693172 24.520463l51.389414 0c14.186094 0 25.693172-10.989285 25.693172-24.520463 0-13.549597-11.507078-24.521486-25.693172-24.521486l-51.389414 0C472.116641 829.748854 460.610586 840.720743 460.610586 854.270341L460.610586 854.270341 460.610586 854.270341M409.228335 780.706905c0 13.532201 11.501962 24.524556 25.689079 24.524556l154.158009 0c14.190187 0 25.693172-10.992355 25.693172-24.524556 0-13.548574-11.502985-24.524556-25.693172-24.524556L434.917414 756.182348C420.727227 756.182348 409.228335 767.158331 409.228335 780.706905L409.228335 780.706905 409.228335 780.706905M409.228335 780.706905" p-id="10450" fill="#DB868A"></path></svg>